<?xml version="1.0" encoding="UTF-8"?>
<svg xmlns="http://www.w3.org/2000/svg" viewBox="0 0 200 200"><path fill="#5B37BF" fill-rule="evenodd" d="M129.903 56.3c.066.774.097 1.547.097 2.323 0 6.611-2.41 13.038-7.274 17.904-4.866 4.861-11.29 7.27-17.9 7.273-.772.001-1.55-.031-2.33-.098a27.042 27.042 0 0 1-.096-2.326c0-6.611 2.413-13.035 7.276-17.9 4.864-4.866 11.293-7.275 17.907-7.276.768 0 1.546.033 2.32.1zm-58.004 0c.781-.066 1.563-.1 2.342-.1 4.82.004 9.548 1.283 13.647 3.85a31.018 31.018 0 0 0-.366 4.699c0 6.952 2.372 13.578 6.478 19.051-5.518-.65-10.752-3.015-14.876-7.132-4.896-4.9-7.318-11.371-7.324-18.03 0-.777.034-1.557.1-2.338zm20.124 3.638C93.546 51.292 98.926 44.23 106.28 40c3.961 4.701 6.43 10.45 6.92 16.544a26.926 26.926 0 0 0-6.923 5.02c-5.364 5.369-8.02 12.486-8.02 19.717 0 .638.023 1.277.066 1.919-4.258-5.212-6.723-11.65-6.723-18.405 0-1.606.137-3.228.423-4.857zm28.014 35.198c6.104 5.504 9.963 13.457 9.963 22.336 0 8.193-3.275 15.621-8.581 21.045L99.995 160l-21.42-21.483c-.902-.922-1.716-1.92-2.497-2.952-3.8-5.037-6.078-11.293-6.078-18.093 0-16.61 13.426-30.072 30-30.072 7.713 0 14.725 2.943 20.037 7.736z" style="fill: #ff7060;"/></svg>
