<?xml version="1.0" encoding="UTF-8"?>
<svg width="200px" height="200px" viewBox="0 0 200 200" version="1.1" xmlns="http://www.w3.org/2000/svg" xmlns:xlink="http://www.w3.org/1999/xlink">
    <!-- Generator: Sketch 54.1 (76490) - https://sketchapp.com -->
    <title>carrot</title>
    <desc>Created with Sketch.</desc>
    <g id="carrot" stroke="none" stroke-width="1" fill="none" fill-rule="evenodd">
        <path d="M129.902505,56.2992826 C129.969495,57.0738066 130,57.8471344 130,58.6228546 C130,65.2341196 127.590742,71.6605754 122.72617,76.5272176 C117.859804,81.3884771 111.435316,83.7975756 104.826006,83.799968 C104.053823,83.8011641 103.275659,83.7688674 102.496897,83.7018815 C102.429906,82.9261614 102.4,82.149245 102.4,81.3759172 C102.4,74.7646522 104.813445,68.3411869 109.675624,63.4763389 C114.540196,58.6102947 120.968871,56.2011962 127.582966,56.2 C128.350962,56.2 129.129126,56.2334929 129.902505,56.2992826 Z M71.8993922,56.2999716 C72.6800727,56.2337254 73.461958,56.2 74.2408314,56.2 C79.0616541,56.2036134 83.7891084,57.4827686 87.8882835,60.0495101 C87.6473327,61.6213533 87.5220383,63.1913897 87.5220383,64.7487792 C87.5220383,71.7010234 89.8935964,78.3274564 94,83.8 C88.4816248,83.1501844 83.2481739,80.7845905 79.1243013,76.6682886 C74.2281815,71.7678719 71.8060238,65.2968164 71.8,58.6372603 C71.8,57.8609745 71.8337331,57.0810753 71.8993922,56.2999716 Z M92.0227333,59.9382316 C93.5458868,51.2924921 98.925586,44.2304995 106.279832,40 C110.241464,44.70102 112.710394,50.450099 113.2,56.5441466 C110.69226,57.813416 108.354091,59.4820599 106.277444,61.5638291 C100.913268,66.9326653 98.2562583,74.0496616 98.2562583,81.2814482 C98.2562583,81.9187733 98.2801415,82.5584898 98.3231314,83.2 C94.0647501,77.9878046 91.6,71.550582 91.6,64.7952946 C91.6,63.1894266 91.7367315,61.5674163 92.0227333,59.9382316 Z M120.037251,95.1363258 C126.141235,100.640455 130,108.592993 130,117.472069 C130,125.664776 126.724502,133.093254 121.418924,138.517127 L99.9946215,160 L78.5756972,138.517127 C77.6733068,137.594781 76.8587649,136.59757 76.0782869,135.565021 C72.2780876,130.528055 70,124.271675 70,117.472069 C70,100.862057 83.4258964,87.4 100,87.4 C107.712749,87.4 114.7251,90.3425229 120.037251,95.1363258 Z" fill="#5B37BF"></path>
    </g>
</svg>